Predators (2010) R5 XviD-MAX
Format                           : AVI
Format/Info                      : Audio Video Interleave
Format profile                   : OpenDML
File size                        : 1.24 GiB
Duration                         : 1h 42mn
Overall bit rate                 : 1 737 Kbps
Writing application              : VirtualDubMod 1.5.10.2 (build 2542/release)
Writing library                  : VirtualDubMod build 2542/release
Original source form             : MAX TORRENTZ
Copyright                        : SIGISMUNT

Video
ID                               : 0
Format                           : MPEG-4 Visual
Format profile                   : AdvancedSimple@L5
Format settings, BVOP            : Yes
Format settings, QPel            : No
Format settings, GMC             : No warppoints
Format settings, Matrix          : Custom
Codec ID                         : XVID
Codec ID/Hint                    : XviD
Duration                         : 1h 42mn
Bit rate                         : 1 515 Kbps
Width                            : 720 pixels
Height                           : 304 pixels
Display aspect ratio             : 2.35:1
Frame rate                       : 25.000 fps
Resolution                       : 24 bits
Colorimetry                      : 4:2:0
Scan type                        : Progressive
Bits/(Pixel*Frame)               : 0.277
Stream size                      : 1.08 GiB (87%)
Writing library                  : XviD 1.2.1 (UTC 2008-12-04)

Audio
ID                               : 1
Format                           : MPEG Audio
Format version                   : Version 1
Format profile                   : Layer 3
Codec ID                         : 55
Codec ID/Hint                    : MP3
Duration                         : 1h 42mn
Bit rate mode                    : Variable
Bit rate                         : 214 Kbps
Channel(s)                       : 2 channels
Sampling rate                    : 48.0 KHz
Resolution                       : 16 bits
Stream size                      : 157 MiB (12%)
Alignment                        : Aligned on interleaves
Interleave, duration             : 24 ms (0.60 video frame)
Interleave, preload duration     : 237 ms
Writing library                  : LAME3.97
Encoding settings                : -m m -V 10 -q 0
 
http://www.imdb.com/title/tt1424381/

Sources: R5 DVDRip+top quality Studio line perfect synced

Screens:
 
http://www.postimg.com/image/22000/21834.jpg
 
http://www.postimg.com/image/22000/21835.jpg
 
http://www.postimg.com/image/22000/21836.jpg
 
http://www.postimg.com/image/22000/21837.jpg
 
http://www.postimg.com/image/22000/21838.jpg

ScreenCaps:
 
http://www.postimg.com/image/22000/21839.jpg

Predators (2010) R5 XviD-MAX Torrent Free Download
 
http://thepiratebay.org/user/extremezone/0/7

How To Get Your Maxspeed (uTorrent)

Torrent Client - Preferences - Bandwidth - Number of connections - Set aprox. 500 for each 
Torrent Client - Preferences - BiTorrent - Protocol Encryption - Forced
Bandwidth Allocation - High (Set download/upload limit - Unlimited)
Stop Other Active Torrents - Start downloading and wait for connections.
Enjoy and Seed for at least 1:1 ratio. Don't forget to say thanks/leave reviews.
Greets to all actual/future p2p/scene quality groups and affiliate websites.
Don't trust IMDb robot or bad ratings,always watch some trailers first.
Ignore stupid comments/fake/mislabeled/no-dvdrip-r5/CAM/TS/RAR uploads.
Please spread this release/torrent to your friends/forums/etc.
If you need translation subs visit some subtitles sites.
Report if you see online streaming or other spam links.
Recommended movie player VLC PLAYER.
